<svg xmlns="http://www.w3.org/2000/svg"  viewBox="0 0 64 64" width="96px" height="96px"><path d="M 36 10 C 29.527 10 23.558 13.520844 20.375 19.089844 C 19.916 19.030844 19.457 19 19 19 C 13.636 19 9.1672656 22.770641 8.1972656 27.931641 C 4.3492656 30.289641 2 34.439 2 39 C 2 46.168 7.832 52 15 52 L 48 52 C 55.72 52 62 45.72 62 38 C 62 32.479 58.743344 27.508813 53.777344 25.257812 C 52.444344 16.605812 44.868 10 36 10 z M 36 14 C 44.503 14 50.161875 21.389766 50.046875 28.134766 C 54.165875 29.165766 58 32.73 58 38 C 58 43.514 53.514 48 48 48 L 15 48 C 10.037 48 6 43.962 6 39 C 6 34.529 8.9845469 31.784609 11.935547 30.474609 C 11.897547 27.090609 14.181 23 19 23 C 20.446 23 21.745453 23.526234 22.564453 23.740234 C 24.637453 18.225234 29.541 14 36 14 z M 32 24.722656 C 31.456125 24.722656 30.913469 24.958141 30.542969 25.431641 L 25.396484 32.007812 C 24.445484 33.223813 25.312469 35 26.855469 35 L 30 35 L 30 42 C 30 43.105 30.896 44 32 44 C 33.104 44 34 43.105 34 42 L 34 35 L 37.144531 35 C 38.687531 35 39.553516 33.223813 38.603516 32.007812 L 33.458984 25.431641 C 33.087984 24.958141 32.543875 24.722656 32 24.722656 z"/></svg>